# xmcd
#
# Track frame offsets: 
#        150
#        11575
#        19720
#        28277
#        39728
#        49466
#        61470
#        74013
#        84721
#        98635
#        110171
#        118789
#        128916
#        139777
#        152324
#        160646
#        171599
#        181766
#
# Disc length: 2640 seconds
#
# Revision: 0
# Processed by: cddbd v1.5.2PL0 Copyright (c) Steve Scherf et al.
# Submitted via: ExactAudioCopy v0.95b4
#
DISCID=fd0a4e12
DTITLE=Cathy Grant - Joy RIde
DYEAR=2006
DGENRE=Acoustic
TTITLE0=Rock Andy
TTITLE1=Cathy on the Run
TTITLE2=Devil in Georgia
TTITLE3=Elzic's Farewell
TTITLE4=Boo Baby's Lullaby
TTITLE5=Ducks on the Pond
TTITLE6=The First of May
TTITLE7=Meg Gray
TTITLE8=Flowers of the Thorn
TTITLE9=Foggy Harbor
TTITLE10=Rachel
TTITLE11=Bare Necessities
TTITLE12=Haning's Farewell
TTITLE13=Eleanor
TTITLE14=Monroe's Farewell to Long Hollow
TTITLE15=Whiskey Before Breakfast - Doctor Doctor
TTITLE16=Star of the County Down
TTITLE17=Old Dangerfield
EXTD=Hot Fiddle, Cool Tradition
EXTT0=
EXTT1=
EXTT2=
EXTT3=
EXTT4=
EXTT5=
EXTT6=
EXTT7=
EXTT8=
EXTT9=
EXTT10=
EXTT11=
EXTT12=
EXTT13=
EXTT14=
EXTT15=
EXTT16=
EXTT17=
PLAYORDER=
